# xmcd CD database file
#
# Track frame offsets:
#	150
#	16437
#	33847
#
# Disc length: 539 seconds
#
# Revision: 2
# Processed by: cddbd v1.5PL3 Copyright (c) Steve Scherf et al.
# Submitted via: CDex 1.50
#
DISCID=18021903
DTITLE=Tommy Heavenly6 - Wait Till I Can Dream
DYEAR=2003
DGENRE=Rock
TTITLE0=Wait Till I Can Dream
TTITLE1=Swear
TTITLE2=Melancholy Power
EXTD=YEAR: 2003
EXTT0=
EXTT1=
EXTT2=
PLAYORDER=
